<svg width="76" height="14" viewBox="0 0 76 14" fill="none" xmlns="http://www.w3.org/2000/svg">
<path d="M0.0732422 3.51904C0.832023 3.46484 1.59081 3.46484 2.36765 3.51904L2.53025 5.05467H2.63865C2.92771 3.84423 4.10201 3.33838 5.74604 3.33838C5.8183 3.95263 5.8183 4.96434 5.74604 5.57859C3.70455 5.57859 3.1445 5.99411 2.65671 7.29488V12.9135C2.02439 13.0038 0.687494 13.0038 0.0732422 12.9135V3.51904Z" fill="white"/>
<path d="M15.2851 9.01117C14.0746 9.1015 11.2924 9.11957 9.73874 9.02924V9.48089C9.73874 10.7636 10.4795 10.9985 12.0332 10.9985C13.0991 10.9985 13.8578 10.9081 14.8695 10.7094C14.9418 11.3236 14.9418 12.1908 14.8695 12.8051C13.6049 13.0219 12.5932 13.1303 11.4008 13.1303C8.7993 13.1303 7.15527 12.3534 7.15527 10.059V6.44577C7.15527 4.04296 8.88963 3.33838 11.2924 3.33838C13.6772 3.33838 15.2851 4.35009 15.2851 6.93356V9.01117ZM12.7558 6.82516C12.7558 5.59666 12.0512 5.45213 11.2563 5.45213C10.4614 5.45213 9.73874 5.59666 9.73874 6.82516V7.52974L11.1298 7.43941H12.7558V6.82516Z" fill="white"/>
<path d="M23.8845 10.7094C23.8845 12.4618 22.5114 13.1303 20.2712 13.1303C19.3137 13.1303 18.2117 13.058 17.1819 12.8773C17.0916 12.227 17.0916 11.4862 17.1819 10.8539C18.1575 11.0165 19.133 11.0707 19.8918 11.0707C20.6145 11.0707 21.301 11.0165 21.301 10.4023V10.059C21.301 9.53509 20.9397 9.44476 20.3254 9.28217L18.6994 8.81244C17.6697 8.52338 17.1096 7.873 17.1096 6.68063V5.68699C17.1096 4.00683 18.5549 3.33838 20.8493 3.33838C21.7526 3.33838 22.6921 3.41064 23.7399 3.62744C23.8303 4.27782 23.8303 5.00047 23.7399 5.63279C22.6379 5.43406 21.9333 5.37986 21.1384 5.37986C20.3615 5.37986 19.6931 5.43406 19.6931 6.04831V6.39157C19.6931 6.84323 20.1086 7.00582 20.6687 7.16842L22.1862 7.58394C23.3063 7.89107 23.8845 8.45112 23.8845 9.82415V10.7094Z" fill="white"/>
<path d="M33.9294 9.01117C32.7189 9.1015 29.9367 9.11957 28.383 9.02924V9.48089C28.383 10.7636 29.1237 10.9985 30.6774 10.9985C31.7433 10.9985 32.5021 10.9081 33.5138 10.7094C33.5861 11.3236 33.5861 12.1908 33.5138 12.8051C32.2492 13.0219 31.2375 13.1303 30.0451 13.1303C27.4436 13.1303 25.7996 12.3534 25.7996 10.059V6.44577C25.7996 4.04296 27.5339 3.33838 29.9367 3.33838C32.3215 3.33838 33.9294 4.35009 33.9294 6.93356V9.01117ZM31.4001 6.82516C31.4001 5.59666 30.6955 5.45213 29.9006 5.45213C29.1057 5.45213 28.383 5.59666 28.383 6.82516V7.52974L29.7741 7.43941H31.4001V6.82516Z" fill="white"/>
<path d="M36.1873 3.51904C36.946 3.46484 37.7048 3.46484 38.4817 3.51904L38.6443 5.05467H38.7527C39.0417 3.84423 40.216 3.33838 41.8601 3.33838C41.9323 3.95263 41.9323 4.96434 41.8601 5.57859C39.8186 5.57859 39.2585 5.99411 38.7707 7.29488V12.9135C38.1384 13.0038 36.8015 13.0038 36.1873 12.9135V3.51904Z" fill="white"/>
<path d="M43.5952 3.59076C44.2275 3.50043 45.5644 3.50043 46.1787 3.59076L48.1479 10.5463L50.0991 3.59076C50.7133 3.50043 51.996 3.50043 52.6103 3.59076L49.7377 12.9129C48.9428 13.0033 47.2807 13.0033 46.4858 12.9129L43.5952 3.59076Z" fill="white"/>
<path d="M62.6005 10.1128C62.6005 12.353 60.9023 13.1298 58.373 13.1298C55.8437 13.1298 54.1455 12.353 54.1455 10.1128V6.39111C54.1455 4.06057 55.8437 3.33792 58.373 3.33792C60.9023 3.33792 62.6005 4.06057 62.6005 6.39111V10.1128ZM60.017 6.91503C60.017 5.66846 59.2582 5.52393 58.373 5.52393C57.4697 5.52393 56.729 5.66846 56.729 6.91503V9.5527C56.729 10.7812 57.4697 10.9257 58.373 10.9257C59.2582 10.9257 60.017 10.7812 60.017 9.5527V6.91503Z" fill="white"/>
<path d="M67.6408 2.12754C67.0085 2.21787 65.5813 2.21787 64.9309 2.12754L64.8948 0.0679925C65.5452 -0.0223386 67.0447 -0.0223386 67.695 0.0679925L67.6408 2.12754ZM65.0032 3.5909C65.6174 3.50057 66.9543 3.50057 67.5866 3.5909V12.9131C66.9543 13.0034 65.6174 13.0034 65.0032 12.9131V3.5909Z" fill="white"/>
<path d="M70.2241 3.51858C70.9829 3.46438 71.7417 3.46438 72.5185 3.51858L72.6811 5.05421H72.7895C73.0786 3.84378 74.2529 3.33792 75.8969 3.33792C75.9692 3.95217 75.9692 4.96388 75.8969 5.57813C73.8554 5.57813 73.2954 5.99366 72.8076 7.29442V12.913C72.1753 13.0033 70.8384 13.0033 70.2241 12.913V3.51858Z" fill="white"/>
</svg>
